<svg width="50" height="50" viewBox="0 0 50 50" fill="none" xmlns="http://www.w3.org/2000/svg">
<rect width="50" height="50" rx="15" fill="#492A29"/>
<path fill-rule="evenodd" clip-rule="evenodd" d="M19.0296 24.811C19.0296 24.9194 18.9535 24.9736 18.8013 24.9736C18.6719 24.9736 18.5235 24.962 18.356 24.9387C18.1886 24.9155 18.0097 24.9039 17.8194 24.9039C17.6215 24.9039 17.4446 24.9155 17.2886 24.9387C17.1325 24.962 17.0013 24.9736 16.8947 24.9736C16.7577 24.9736 16.6892 24.9117 16.6892 24.7878C16.6892 24.6794 16.7273 24.6252 16.8034 24.6252C16.8871 24.6252 16.9898 24.602 17.1116 24.5556C17.2182 24.5168 17.2829 24.4646 17.3057 24.3988C17.3285 24.333 17.3399 24.242 17.3399 24.1259V18.0877C17.3399 17.987 17.3152 17.9135 17.2657 17.867C17.2163 17.8206 17.1592 17.7857 17.0945 17.7625C17.0298 17.7393 16.9727 17.7161 16.9232 17.6928C16.8738 17.6696 16.849 17.6348 16.849 17.5883C16.849 17.5032 16.9004 17.4471 17.0032 17.42C17.1059 17.3929 17.2258 17.3522 17.3628 17.298C17.6292 17.1974 17.8251 17.1026 17.9507 17.0135C18.0763 16.9245 18.1581 16.88 18.1962 16.88C18.2571 16.88 18.2951 16.8994 18.3103 16.9381C18.3256 16.9768 18.3332 17.031 18.3332 17.1006C18.3332 17.2013 18.3275 17.3174 18.3161 17.449C18.3046 17.5806 18.2989 17.7277 18.2989 17.8903V24.0562C18.2989 24.3117 18.3712 24.4743 18.5158 24.5439C18.5767 24.5749 18.6376 24.5923 18.6985 24.5962C18.7594 24.6001 18.8146 24.6059 18.864 24.6136C18.9135 24.6214 18.9535 24.6388 18.9839 24.6659C19.0144 24.693 19.0296 24.7413 19.0296 24.811ZM13.3442 25.1594C13.5573 25.1594 13.7514 25.0994 13.9264 24.9794C14.1015 24.8594 14.2879 24.7142 14.4858 24.5439L14.7256 24.3349H14.7941C14.8778 24.5981 14.9843 24.7955 15.1137 24.9271C15.2431 25.0587 15.4067 25.1245 15.6046 25.1245C15.696 25.1245 15.7968 25.0936 15.9072 25.0316C16.0175 24.9697 16.1203 24.8962 16.2154 24.811C16.3106 24.7259 16.3924 24.6388 16.4609 24.5497C16.5294 24.4607 16.5636 24.3852 16.5636 24.3233C16.5636 24.2072 16.518 24.1491 16.4266 24.1491C16.3581 24.1491 16.2896 24.1878 16.2211 24.2653C16.1526 24.3427 16.0765 24.3814 15.9928 24.3814C15.8634 24.3814 15.7835 24.3194 15.753 24.1956C15.7226 24.0717 15.7074 23.8859 15.7074 23.6382V20.9442C15.7074 20.7275 15.696 20.5359 15.6731 20.3694C15.6503 20.203 15.6008 20.0636 15.5247 19.9514C15.4486 19.8391 15.3363 19.754 15.1879 19.6959C15.0395 19.6379 14.8435 19.6088 14.6 19.6088C14.3032 19.6088 14.0273 19.6611 13.7723 19.7656C13.5173 19.8701 13.2966 20.0017 13.1101 20.1604C12.9237 20.3191 12.7791 20.4952 12.6763 20.6887C12.5736 20.8823 12.5222 21.0642 12.5222 21.2345C12.5222 21.2964 12.5431 21.3468 12.585 21.3855C12.6268 21.4242 12.6782 21.4435 12.7391 21.4435C12.9674 21.4435 13.133 21.3758 13.2357 21.2403C13.3385 21.1048 13.4317 20.9403 13.5154 20.7468C13.622 20.4991 13.7323 20.3075 13.8465 20.172C13.9607 20.0365 14.1167 19.9688 14.3146 19.9688C14.5125 19.9688 14.6361 20.0423 14.6856 20.1894C14.7351 20.3365 14.7598 20.5726 14.7598 20.8978V21.7222C14.7598 21.8074 14.7541 21.8674 14.7427 21.9022C14.7313 21.937 14.6951 21.9699 14.6342 22.0009L14.3488 22.1519C14.0748 22.2912 13.8256 22.4306 13.601 22.5699C13.3765 22.7092 13.1843 22.8583 13.0245 23.017C12.8647 23.1757 12.7429 23.3518 12.6592 23.5453C12.5755 23.7388 12.5336 23.9633 12.5336 24.2188C12.5336 24.513 12.6078 24.7433 12.7562 24.9097C12.9046 25.0762 13.1006 25.1594 13.3442 25.1594ZM13.9835 24.4046C13.8541 24.4046 13.7495 24.3465 13.6695 24.2304C13.5896 24.1143 13.5497 23.944 13.5497 23.7195C13.5497 23.1776 13.7742 22.7905 14.2232 22.5583L14.6 22.3725C14.6533 22.3415 14.6913 22.326 14.7141 22.326C14.7522 22.326 14.7712 22.3725 14.7712 22.4654V23.3827C14.7712 23.5376 14.7465 23.6769 14.697 23.8008C14.6476 23.9246 14.5848 24.0311 14.5087 24.1201C14.4325 24.2091 14.3488 24.2788 14.2575 24.3291C14.1662 24.3794 14.0748 24.4046 13.9835 24.4046ZM26.6444 24.9852C26.7814 24.9852 26.8499 24.9233 26.8499 24.7994C26.8499 24.7452 26.8366 24.7065 26.8099 24.6833C26.7833 24.6601 26.749 24.6426 26.7072 24.631C26.6653 24.6194 26.6158 24.6097 26.5588 24.602C26.5017 24.5943 26.4427 24.5749 26.3818 24.5439C26.3133 24.5052 26.2676 24.451 26.2448 24.3814C26.222 24.3117 26.2106 24.2072 26.2106 24.0678V21.3274C26.2106 20.8087 26.0888 20.3946 25.8452 20.0849C25.6017 19.7753 25.2858 19.6204 24.8977 19.6204C24.3344 19.6204 23.8664 19.9262 23.4934 20.5378H23.4363C23.2841 20.2668 23.1091 20.0462 22.9112 19.8759C22.7133 19.7056 22.4583 19.6204 22.1463 19.6204C21.9332 19.6204 21.7296 19.6746 21.5355 19.783C21.3414 19.8914 21.1721 20.0462 21.0275 20.2475L20.9133 20.3984C20.8752 20.4449 20.8486 20.4681 20.8334 20.4681C20.8106 20.4681 20.7991 20.4178 20.7991 20.3172V19.8295C20.7991 19.7598 20.7915 19.7017 20.7763 19.6553C20.7611 19.6088 20.7421 19.5856 20.7192 19.5856C20.6964 19.5856 20.6659 19.603 20.6279 19.6379C20.5898 19.6727 20.5423 19.7191 20.4852 19.7772C20.4281 19.8353 20.3558 19.903 20.2683 19.9804C20.1807 20.0578 20.0723 20.1352 19.9429 20.2127C19.7907 20.2978 19.6594 20.3636 19.549 20.4101C19.4387 20.4565 19.3835 20.5301 19.3835 20.6307C19.3835 20.7004 19.4101 20.7391 19.4634 20.7468C19.5167 20.7545 19.5738 20.7662 19.6347 20.7816C19.6955 20.7971 19.7526 20.8416 19.8059 20.9152C19.8592 20.9887 19.8858 21.1261 19.8858 21.3274V24.0678C19.8858 24.2149 19.8744 24.3252 19.8516 24.3988C19.8287 24.4723 19.7755 24.5285 19.6917 24.5672C19.6461 24.5904 19.6023 24.6059 19.5604 24.6136C19.5186 24.6214 19.4824 24.6291 19.452 24.6368C19.4215 24.6446 19.3968 24.6581 19.3778 24.6775C19.3588 24.6968 19.3492 24.7336 19.3492 24.7878C19.3492 24.9194 19.4101 24.9852 19.5319 24.9852C19.6156 24.9852 19.726 24.9716 19.863 24.9446C20 24.9175 20.1674 24.9039 20.3653 24.9039C20.5556 24.9039 20.7268 24.9175 20.8791 24.9446C21.0313 24.9716 21.1645 24.9852 21.2786 24.9852C21.4156 24.9852 21.4841 24.9233 21.4841 24.7994C21.4841 24.7452 21.4708 24.7065 21.4442 24.6833C21.4175 24.6601 21.3833 24.6426 21.3414 24.631C21.2996 24.6194 21.2501 24.6097 21.193 24.602C21.1359 24.5943 21.0769 24.5749 21.0161 24.5439C20.9476 24.5052 20.9019 24.451 20.8791 24.3814C20.8562 24.3117 20.8448 24.2072 20.8448 24.0678V21.5364C20.8448 21.1184 20.9247 20.8087 21.0845 20.6075C21.2444 20.4062 21.4575 20.3056 21.7239 20.3056C22.0588 20.3056 22.2852 20.4584 22.4032 20.7642C22.5211 21.07 22.5801 21.5248 22.5801 22.1286V23.3206C22.546 23.3412 22.506 23.3677 22.4602 23.4002C22.3347 23.4892 22.1387 23.584 21.8723 23.6846C21.7353 23.7388 21.6154 23.7795 21.5127 23.8066C21.4099 23.8337 21.3585 23.8898 21.3585 23.975C21.3585 24.0214 21.3833 24.0562 21.4328 24.0795C21.4822 24.1027 21.5393 24.1259 21.604 24.1491C21.6687 24.1724 21.7258 24.2072 21.7752 24.2536C21.8247 24.3001 21.8495 24.3736 21.8495 24.4743V30.5125C21.8495 30.6286 21.838 30.7196 21.8152 30.7854C21.7924 30.8512 21.7277 30.9035 21.6211 30.9422C21.4993 30.9886 21.3966 31.0118 21.3129 31.0118C21.2368 31.0118 21.1987 31.066 21.1987 31.1744C21.1987 31.2983 21.2672 31.3602 21.4042 31.3602C21.5108 31.3602 21.6421 31.3486 21.7981 31.3254C21.9541 31.3021 22.1311 31.2905 22.3289 31.2905C22.5192 31.2905 22.6981 31.3021 22.8655 31.3254C23.033 31.3486 23.1814 31.3602 23.3108 31.3602C23.463 31.3602 23.5391 31.306 23.5391 31.1976C23.5391 31.128 23.5239 31.0796 23.4934 31.0525C23.463 31.0254 23.423 31.008 23.3736 31.0002C23.3241 30.9925 23.2689 30.9867 23.208 30.9828C23.1471 30.9789 23.0862 30.9615 23.0254 30.9306C22.8807 30.8609 22.8084 30.6983 22.8084 30.4428V24.9115C22.8827 24.9064 22.9626 24.9039 23.0482 24.9039C23.2309 24.9039 23.4002 24.9175 23.5562 24.9446C23.7122 24.9716 23.8473 24.9852 23.9615 24.9852C24.0985 24.9852 24.167 24.9233 24.167 24.7994C24.167 24.7452 24.1537 24.7065 24.127 24.6833C24.1004 24.6601 24.0662 24.6426 24.0243 24.631C23.9824 24.6194 23.933 24.6097 23.8759 24.602C23.8188 24.5943 23.7598 24.5749 23.6989 24.5439C23.6304 24.5052 23.5867 24.451 23.5676 24.3814C23.5486 24.3117 23.5391 24.2072 23.5391 24.0678V21.5364C23.5391 21.1184 23.619 20.8087 23.7788 20.6075C23.9387 20.4062 24.148 20.3056 24.4067 20.3056C24.7492 20.3056 24.9757 20.4604 25.086 20.77C25.1964 21.0797 25.2516 21.5326 25.2516 22.1286V23.2741C25.2067 23.2901 25.1363 23.3321 25.0404 23.4002C24.9148 23.4892 24.7188 23.584 24.4524 23.6846C24.3154 23.7388 24.1955 23.7795 24.0928 23.8066C23.99 23.8337 23.9387 23.8898 23.9387 23.975C23.9387 24.0214 23.9634 24.0562 24.0129 24.0795C24.0624 24.1027 24.1194 24.1259 24.1841 24.1491C24.2488 24.1724 24.3059 24.2072 24.3554 24.2536C24.4048 24.3001 24.4296 24.3736 24.4296 24.4743V30.5125C24.4296 30.6286 24.4182 30.7196 24.3953 30.7854C24.3725 30.8512 24.3078 30.9035 24.2013 30.9422C24.0795 30.9886 23.9767 31.0118 23.893 31.0118C23.8169 31.0118 23.7788 31.066 23.7788 31.1744C23.7788 31.2983 23.8473 31.3602 23.9843 31.3602C24.0909 31.3602 24.2222 31.3486 24.3782 31.3254C24.5342 31.3021 24.7112 31.2905 24.9091 31.2905C25.0993 31.2905 25.2782 31.3021 25.4457 31.3254C25.6131 31.3486 25.7615 31.3602 25.8909 31.3602C26.0431 31.3602 26.1192 31.306 26.1192 31.1976C26.1192 31.128 26.104 31.0796 26.0736 31.0525C26.0431 31.0254 26.0032 31.008 25.9537 31.0002C25.9042 30.9925 25.849 30.9867 25.7881 30.9828C25.7273 30.9789 25.6664 30.9615 25.6055 30.9306C25.4609 30.8609 25.3886 30.6983 25.3886 30.4428V24.9206C25.4903 24.9095 25.6044 24.9039 25.7311 24.9039C25.9213 24.9039 26.0926 24.9175 26.2448 24.9446C26.397 24.9716 26.5302 24.9852 26.6444 24.9852ZM25.3886 24.9206V24.2769C25.3886 24.1143 25.3943 23.9672 25.4057 23.8356C25.4171 23.704 25.4228 23.5879 25.4228 23.4872C25.4228 23.4176 25.4152 23.3634 25.4 23.3247C25.3848 23.286 25.3467 23.2666 25.2858 23.2666C25.2768 23.2666 25.2654 23.2691 25.2516 23.2741V24.0678C25.2516 24.2149 25.2402 24.3252 25.2173 24.3988C25.1945 24.4723 25.1412 24.5285 25.0575 24.5672C25.0118 24.5904 24.9681 24.6059 24.9262 24.6136C24.8843 24.6214 24.8482 24.6291 24.8177 24.6368C24.7873 24.6446 24.7626 24.6581 24.7435 24.6775C24.7245 24.6968 24.715 24.7336 24.715 24.7878C24.715 24.9194 24.7759 24.9852 24.8977 24.9852C24.9814 24.9852 25.0917 24.9716 25.2287 24.9446C25.2781 24.9348 25.3313 24.9268 25.3886 24.9206ZM22.8084 24.9115V24.2769C22.8084 24.1143 22.8141 23.9672 22.8256 23.8356C22.837 23.704 22.8427 23.5879 22.8427 23.4872C22.8427 23.4176 22.8351 23.3634 22.8199 23.3247C22.8046 23.286 22.7666 23.2666 22.7057 23.2666C22.6815 23.2666 22.6396 23.2846 22.5801 23.3206V24.0678C22.5801 24.2227 22.5668 24.333 22.5402 24.3988C22.5135 24.4646 22.4583 24.5207 22.3746 24.5672C22.3289 24.5904 22.2871 24.6039 22.249 24.6078C22.211 24.6117 22.1748 24.6175 22.1406 24.6252C22.1063 24.633 22.0797 24.6484 22.0607 24.6717C22.0416 24.6949 22.0321 24.7336 22.0321 24.7878C22.0321 24.9194 22.093 24.9852 22.2148 24.9852C22.2985 24.9852 22.4089 24.9716 22.5459 24.9446C22.6236 24.9292 22.7111 24.9182 22.8084 24.9115ZM30.5717 24.962C30.2672 25.0936 29.9247 25.1594 29.5442 25.1594C29.2017 25.1594 28.8896 25.0916 28.608 24.9562C28.3264 24.8207 28.0848 24.631 27.8831 24.3872C27.6814 24.1433 27.5254 23.8511 27.415 23.5105C27.3046 23.1699 27.2495 22.7944 27.2495 22.3841C27.2495 21.9661 27.3065 21.5867 27.4207 21.2461C27.5349 20.9055 27.6985 20.6152 27.9116 20.3752C28.1247 20.1352 28.3797 19.9494 28.6765 19.8178C28.9733 19.6862 29.3044 19.6204 29.6698 19.6204C30.0199 19.6204 30.3395 19.6882 30.6287 19.8237C30.918 19.9591 31.1634 20.1488 31.3651 20.3926C31.5668 20.6365 31.7228 20.9287 31.8332 21.2693C31.9435 21.61 31.9987 21.9893 31.9987 22.4073C31.9987 22.8176 31.9416 23.1931 31.8275 23.5337C31.7133 23.8743 31.5516 24.1646 31.3423 24.4046C31.133 24.6446 30.8761 24.8304 30.5717 24.962ZM29.6469 24.8342C29.2359 24.8342 28.9029 24.6039 28.648 24.1433C28.393 23.6827 28.2655 23.0421 28.2655 22.2215C28.2655 21.4938 28.3835 20.9326 28.6194 20.5378C28.8554 20.143 29.1903 19.9456 29.6241 19.9456C30.0275 19.9456 30.3566 20.1759 30.6116 20.6365C30.8666 21.0971 30.9941 21.7377 30.9941 22.5583C30.9941 23.2782 30.8742 23.8375 30.6344 24.2362C30.3947 24.6349 30.0655 24.8342 29.6469 24.8342ZM34.6416 25.0316C34.4247 25.1168 34.1869 25.1594 33.9281 25.1594C33.6693 25.1594 33.4372 25.1303 33.2317 25.0723C33.0262 25.0142 32.8702 24.9504 32.7636 24.8807C32.6951 24.842 32.6533 24.7917 32.638 24.7297C32.6228 24.6678 32.6152 24.5826 32.6152 24.4743L32.6157 24.0533C32.6175 23.8025 32.625 23.6158 32.638 23.4931C32.6533 23.3498 32.7027 23.2782 32.7865 23.2782C32.8397 23.2782 32.8778 23.2976 32.9006 23.3363C32.9235 23.375 32.9444 23.4311 32.9634 23.5047C32.9824 23.5782 33.0053 23.6672 33.0319 23.7717C33.0585 23.8762 33.1023 23.9943 33.1632 24.1259C33.3763 24.5981 33.6807 24.8342 34.0765 24.8342C34.3201 24.8342 34.5199 24.7491 34.6759 24.5788C34.8319 24.4085 34.9099 24.1801 34.9099 23.8937C34.9099 23.7466 34.8852 23.6169 34.8357 23.5047C34.7862 23.3924 34.7139 23.2918 34.6188 23.2028C34.5237 23.1137 34.4076 23.0286 34.2706 22.9473C34.1336 22.866 33.9814 22.7789 33.8139 22.686C33.6237 22.5854 33.4562 22.4867 33.3116 22.3899C33.167 22.2931 33.0452 22.1886 32.9463 22.0764C32.8473 21.9641 32.7731 21.8364 32.7237 21.6932C32.6742 21.55 32.6495 21.3816 32.6495 21.1881C32.6495 20.7081 32.796 20.3268 33.089 20.0443C33.382 19.7617 33.7569 19.6204 34.2135 19.6204C34.693 19.6204 35.0203 19.6669 35.1953 19.7598C35.3704 19.8527 35.4579 19.9998 35.4579 20.201C35.4579 20.472 35.4465 20.6713 35.4237 20.7991C35.4008 20.9268 35.3514 20.9907 35.2752 20.9907C35.1915 20.9907 35.1421 20.9365 35.1268 20.8281C35.1116 20.7197 35.0583 20.5842 34.967 20.4217C34.7767 20.0888 34.5256 19.9224 34.2135 19.9224C33.9928 19.9224 33.8158 19.9862 33.6826 20.114C33.5495 20.2417 33.4829 20.4062 33.4829 20.6075C33.4829 20.7391 33.5095 20.8494 33.5628 20.9384C33.6161 21.0274 33.6922 21.1107 33.7911 21.1881C33.89 21.2655 34.0099 21.341 34.1507 21.4145C34.2915 21.488 34.4495 21.5713 34.6245 21.6642C34.9974 21.8654 35.2714 22.0919 35.4465 22.3435C35.6215 22.5951 35.7091 22.9105 35.7091 23.2898C35.7091 23.584 35.6653 23.8472 35.5778 24.0795C35.4903 24.3117 35.3666 24.5072 35.2067 24.6659C35.0469 24.8246 34.8585 24.9465 34.6416 25.0316ZM37.6499 25.1594C37.8249 25.1594 37.9905 25.1265 38.1465 25.0607C38.3025 24.9949 38.4395 24.9155 38.5575 24.8226C38.6755 24.7297 38.7687 24.6368 38.8372 24.5439C38.9057 24.451 38.9399 24.3775 38.9399 24.3233C38.9399 24.2149 38.9019 24.1607 38.8258 24.1607C38.7877 24.1607 38.7478 24.1762 38.7059 24.2072C38.664 24.2382 38.6165 24.2749 38.5632 24.3175C38.5099 24.3601 38.4509 24.3969 38.3862 24.4278C38.3215 24.4588 38.2473 24.4743 38.1636 24.4743C37.9886 24.4743 37.8687 24.391 37.804 24.2246C37.7393 24.0582 37.707 23.793 37.707 23.4292V20.4913C37.707 20.3907 37.7526 20.3404 37.844 20.3404H38.7116C38.7801 20.3404 38.822 20.3288 38.8372 20.3056C38.8524 20.2823 38.86 20.2397 38.86 20.1778V19.9456C38.86 19.8991 38.8524 19.8682 38.8372 19.8527C38.822 19.8372 38.7801 19.8295 38.7116 19.8295H37.8554C37.7564 19.8295 37.707 19.7791 37.707 19.6785V18.9702C37.707 18.885 37.7013 18.8173 37.6898 18.767C37.6784 18.7166 37.6461 18.6915 37.5928 18.6915C37.5243 18.6915 37.4463 18.7689 37.3588 18.9237C37.2712 19.0785 37.1361 19.2643 36.9535 19.4811C36.8469 19.5972 36.7499 19.6901 36.6624 19.7598C36.5748 19.8295 36.4968 19.8875 36.4283 19.934C36.3598 19.9804 36.3065 20.023 36.2685 20.0617C36.2304 20.1004 36.2114 20.143 36.2114 20.1894C36.2114 20.2901 36.2799 20.3404 36.4169 20.3404H36.6224C36.6985 20.3404 36.7442 20.3733 36.7594 20.4391C36.7746 20.5049 36.7822 20.592 36.7822 20.7004L36.7366 23.1969V23.6846C36.7366 24.6678 37.041 25.1594 37.6499 25.1594ZM13.407 33.8452C13.327 33.8684 13.2186 33.88 13.0816 33.88C12.7924 33.88 12.6478 33.7407 12.6478 33.462C12.6478 33.2297 12.6801 33.0652 12.7448 32.9685C12.8095 32.8717 12.9484 32.8233 13.1615 32.8233H13.2072C13.3213 32.8233 13.4146 32.8059 13.4869 32.7711C13.5592 32.7362 13.6296 32.622 13.6981 32.4285L13.9378 31.755C13.9911 31.6157 14.0177 31.4957 14.0177 31.395C14.0177 31.3563 14.0044 31.2712 13.9778 31.1396C13.9511 31.008 13.9074 30.8415 13.8465 30.6403L12.9103 27.7256C12.819 27.4392 12.7334 27.207 12.6535 27.0289C12.5736 26.8509 12.4841 26.727 12.3852 26.6573C12.3319 26.6186 12.2786 26.5915 12.2254 26.576C12.1721 26.5606 12.1245 26.5451 12.0826 26.5296C12.0408 26.5141 12.0065 26.4948 11.9799 26.4715C11.9533 26.4483 11.9399 26.4096 11.9399 26.3554C11.9399 26.2935 11.9552 26.2548 11.9856 26.2393C12.0161 26.2238 12.0655 26.2161 12.134 26.2161C12.1949 26.2161 12.3129 26.2238 12.4879 26.2393C12.663 26.2548 12.8951 26.2625 13.1843 26.2625C13.4736 26.2625 13.6943 26.2548 13.8465 26.2393C13.9987 26.2238 14.09 26.2161 14.1205 26.2161C14.2118 26.2161 14.2575 26.2586 14.2575 26.3438C14.2575 26.4212 14.2289 26.4735 14.1719 26.5006C14.1148 26.5277 14.052 26.5509 13.9835 26.5702C13.915 26.5896 13.8522 26.6109 13.7951 26.6341C13.738 26.6573 13.7095 26.7038 13.7095 26.7734C13.7095 26.8199 13.7171 26.9051 13.7323 27.0289C13.7476 27.1528 13.7856 27.3037 13.8465 27.4818L14.4858 29.5487C14.5163 29.6416 14.5467 29.6881 14.5772 29.6881C14.6 29.6881 14.6304 29.6416 14.6685 29.5487L15.3649 27.5631C15.4182 27.4082 15.4562 27.265 15.4791 27.1334C15.5019 27.0018 15.5133 26.9205 15.5133 26.8896C15.5133 26.7812 15.4791 26.7076 15.4106 26.6689C15.3421 26.6302 15.2678 26.6012 15.1879 26.5818C15.108 26.5625 15.0357 26.5393 14.971 26.5122C14.9063 26.4851 14.874 26.429 14.874 26.3438C14.874 26.2819 14.8835 26.2451 14.9025 26.2335C14.9215 26.2219 14.9577 26.2161 15.011 26.2161C15.0719 26.2161 15.167 26.2219 15.2964 26.2335C15.4258 26.2451 15.597 26.2509 15.8101 26.2509C15.9928 26.2509 16.145 26.2451 16.2668 26.2335C16.3886 26.2219 16.4799 26.2161 16.5408 26.2161C16.6017 26.2161 16.6359 26.2238 16.6435 26.2393C16.6511 26.2548 16.655 26.2935 16.655 26.3554C16.655 26.4406 16.6302 26.489 16.5807 26.5006C16.5313 26.5122 16.4704 26.5296 16.3981 26.5528C16.3258 26.576 16.244 26.6264 16.1526 26.7038C16.0613 26.7812 15.9776 26.9283 15.9015 27.145L14.9653 29.6997C14.6076 30.6673 14.3431 31.4395 14.1719 32.0163C14.0006 32.593 13.8846 32.9743 13.8237 33.1601C13.7856 33.2994 13.7514 33.4136 13.7209 33.5026C13.6905 33.5916 13.6505 33.6652 13.601 33.7232C13.5516 33.7813 13.4869 33.8219 13.407 33.8452ZM18.7556 31.5576C19.0524 31.5576 19.3188 31.5073 19.5547 31.4066C19.7907 31.306 19.9943 31.188 20.1655 31.0525C20.3368 30.917 20.4681 30.7796 20.5594 30.6403C20.6507 30.5009 20.6964 30.3887 20.6964 30.3035C20.6964 30.2183 20.6659 30.1758 20.6051 30.1758C20.5822 30.1758 20.5423 30.2106 20.4852 30.2803C20.4281 30.35 20.3482 30.4274 20.2454 30.5125C20.1427 30.5977 20.0133 30.6751 19.8573 30.7448C19.7013 30.8144 19.5167 30.8493 19.3036 30.8493C18.8241 30.8493 18.434 30.6403 18.1334 30.2222C17.8328 29.8042 17.6824 29.2352 17.6824 28.5153V28.2366C17.6824 28.1591 17.69 28.1088 17.7053 28.0856C17.7205 28.0624 17.7585 28.0508 17.8194 28.0508H20.3425C20.4795 28.0508 20.5784 28.0353 20.6393 28.0043C20.7002 27.9734 20.7306 27.9076 20.7306 27.8069C20.7306 27.5592 20.6869 27.327 20.5993 27.1102C20.5118 26.8934 20.3881 26.7038 20.2283 26.5412C20.0685 26.3786 19.8744 26.249 19.6461 26.1522C19.4177 26.0554 19.1666 26.0071 18.8926 26.0071C18.5729 26.0071 18.278 26.0729 18.0078 26.2045C17.7376 26.3361 17.5036 26.5219 17.3057 26.7618C17.1078 27.0018 16.9537 27.2941 16.8433 27.6385C16.733 27.983 16.6778 28.3682 16.6778 28.7939C16.6778 29.2197 16.7273 29.6029 16.8262 29.9435C16.9251 30.2841 17.0659 30.5744 17.2486 30.8144C17.4313 31.0544 17.6501 31.2383 17.9051 31.366C18.16 31.4937 18.4435 31.5576 18.7556 31.5576ZM17.9108 27.6908H18.6528C19.0258 27.6908 19.2979 27.6482 19.4691 27.5631C19.6404 27.4779 19.726 27.3076 19.726 27.0521C19.726 26.8586 19.648 26.6806 19.492 26.518C19.3359 26.3554 19.1361 26.2741 18.8926 26.2741C18.6262 26.2741 18.3941 26.3786 18.1962 26.5877C17.9983 26.7967 17.8689 27.0599 17.808 27.3773L17.7738 27.5631V27.5863C17.7738 27.656 17.8194 27.6908 17.9108 27.6908ZM28.7793 31.546C29.1598 31.546 29.5023 31.4802 29.8067 31.3486C30.1112 31.217 30.3681 31.0312 30.5774 30.7912C30.7867 30.5512 30.9484 30.2609 31.0626 29.9203C31.1767 29.5797 31.2338 29.2042 31.2338 28.7939C31.2338 28.3759 31.1786 27.9966 31.0683 27.656C30.9579 27.3153 30.8019 27.0231 30.6002 26.7793C30.3985 26.5354 30.153 26.3457 29.8638 26.2103C29.5746 26.0748 29.255 26.0071 28.9048 26.0071C28.5395 26.0071 28.2084 26.0729 27.9116 26.2045C27.6148 26.3361 27.3598 26.5219 27.1467 26.7618C26.9336 27.0018 26.77 27.2921 26.6558 27.6327C26.5416 27.9734 26.4846 28.3527 26.4846 28.7707C26.4846 29.181 26.5397 29.5565 26.6501 29.8971C26.7604 30.2377 26.9165 30.5299 27.1182 30.7738C27.3199 31.0176 27.5615 31.2073 27.8431 31.3428C28.1247 31.4783 28.4368 31.546 28.7793 31.546ZM27.8831 30.5299C28.138 30.9905 28.471 31.2209 28.882 31.2209C29.3006 31.2209 29.6298 31.0215 29.8695 30.6228C30.1093 30.2242 30.2292 29.6648 30.2292 28.9449C30.2292 28.1243 30.1017 27.4837 29.8467 27.0231C29.5917 26.5625 29.2626 26.3322 28.8592 26.3322C28.4254 26.3322 28.0905 26.5296 27.8545 26.9244C27.6186 27.3192 27.5006 27.8805 27.5006 28.6081C27.5006 29.4287 27.6281 30.0693 27.8831 30.5299ZM36.4854 31.2092L37.7869 27.505C37.8934 27.2186 37.9886 27.0018 38.0723 26.8547C38.156 26.7076 38.2588 26.6147 38.3805 26.576C38.4871 26.5373 38.5746 26.518 38.6431 26.518C38.7116 26.518 38.7459 26.4638 38.7459 26.3554C38.7459 26.2935 38.7382 26.2548 38.723 26.2393C38.7078 26.2238 38.6698 26.2161 38.6089 26.2161C38.5632 26.2161 38.4719 26.2238 38.3349 26.2393C38.1979 26.2548 38.0152 26.2625 37.7869 26.2625C37.5966 26.2625 37.4349 26.2548 37.3017 26.2393C37.1685 26.2238 37.06 26.2161 36.9763 26.2161C36.923 26.2161 36.8869 26.2257 36.8678 26.2451C36.8488 26.2645 36.8393 26.3051 36.8393 26.367C36.8393 26.4367 36.8755 26.4793 36.9478 26.4948C37.0201 26.5102 37.0981 26.5277 37.1818 26.547C37.2655 26.5664 37.3435 26.5973 37.4158 26.6399C37.4881 26.6825 37.5243 26.7618 37.5243 26.878C37.5243 26.9321 37.5148 27.0173 37.4958 27.1334C37.4767 27.2495 37.4368 27.3928 37.3759 27.5631L36.6909 29.7229C36.6604 29.8081 36.63 29.8506 36.5996 29.8506C36.5615 29.8506 36.5311 29.8235 36.5082 29.7693L35.6862 27.4818C35.6254 27.3115 35.5816 27.1663 35.555 27.0463C35.5283 26.9263 35.515 26.8354 35.515 26.7734C35.515 26.6883 35.5511 26.6302 35.6235 26.5993C35.6958 26.5683 35.7738 26.5451 35.8575 26.5296C35.9412 26.5141 36.0192 26.4948 36.0915 26.4715C36.1638 26.4483 36.2 26.4057 36.2 26.3438C36.2 26.2509 36.1353 26.2045 36.0059 26.2045C35.945 26.2045 35.8366 26.2161 35.6805 26.2393C35.5245 26.2625 35.3171 26.2741 35.0583 26.2741H33.0604C32.6038 26.2741 32.2461 26.2645 31.9873 26.2451C31.7285 26.2257 31.5611 26.2161 31.485 26.2161C31.4241 26.2161 31.386 26.2238 31.3708 26.2393C31.3556 26.2548 31.348 26.2935 31.348 26.3554C31.348 26.4173 31.3727 26.4599 31.4222 26.4831C31.4717 26.5064 31.5306 26.5354 31.5991 26.5702C31.6676 26.6051 31.738 26.6554 31.8103 26.7212C31.8826 26.787 31.9454 26.8896 31.9987 27.0289L33.4943 31.1976C33.5247 31.2828 33.5514 31.3486 33.5742 31.395C33.597 31.4415 33.6389 31.4647 33.6998 31.4647C33.7607 31.4647 33.8044 31.4434 33.8311 31.4008C33.8577 31.3583 33.8862 31.2944 33.9167 31.2092L35.0013 28.3759L36.063 31.1976C36.0934 31.2828 36.1182 31.3486 36.1372 31.395C36.1562 31.4415 36.2 31.4647 36.2685 31.4647C36.3522 31.4647 36.4245 31.3795 36.4854 31.2092ZM33.9852 29.7926C34.008 29.8468 34.0308 29.8739 34.0537 29.8739C34.0765 29.8739 34.0993 29.839 34.1222 29.7694L34.6017 28.4224C34.6397 28.3062 34.6759 28.1979 34.7101 28.0972C34.7444 27.9966 34.7615 27.8921 34.7615 27.7837C34.7615 27.7527 34.7501 27.6966 34.7273 27.6153C34.7044 27.534 34.6759 27.445 34.6416 27.3482C34.6074 27.2515 34.5693 27.1566 34.5275 27.0637C34.4856 26.9709 34.4418 26.8934 34.3962 26.8315C34.244 26.6302 34.0042 26.5296 33.6769 26.5296C33.4714 26.5296 33.3097 26.5644 33.1917 26.6341C33.0738 26.7038 33.0148 26.7967 33.0148 26.9128C33.0148 27.0444 33.0376 27.1721 33.0833 27.296L33.9852 29.7926Z" fill="white"/>
</svg>
